:SAMPLES-PER-SECOND 30
:FULLY-SPECIFIED
:DEGREES
423
root  -26.9574 40.614 8.1521 -165.306 -11.2321 178.298
RightUpLeg  -11.543 -20.4136 2.01852
RightLeg  6.28502 11.4415 0.519774
RightFoot  34.7484 -1.9547 6.71513
RightToes  -39.4651 -0.214224 -0.312081
Spine  -5.1814 -1.26427 -3.1935
Spine1  -10.2663 -2.61945 -5.48527
HEad  -85.2549 -8.84349 7.08004
LeftShoulder1  -1.94126e-019 -3.10601e-018 -2.51263e-017
LeftArm  -68.4859 -54.829 6.62362
LeftForeArm  88.2522 -80.075 -69.5712
LeftHand  -0.875108 -3.93376 11.146
RightShoulder  -4.96962e-017 0 -2.36833e-017
RightArm  -69.0526 45.1701 -17.9474
RightForeArm  48.4137 61.3664 16.0101
RightHand  -0.424671 -1.57624 -12.8012
LeftUpLeg  -9.61604 6.75867 4.06106
LeftLeg  10.5867 6.10449 0.736315
LeftFoot  36.5017 -1.22552 3.8767
LeftToes  -38.1548 1.70063e-006 7.6642e-008
424
root  -26.9843 41.8097 7.67501 -166.137 -10.7956 179.017
RightUpLeg  -10.6527 -18.0372 1.30952
RightLeg  10.8684 13.6044 1.7027
RightFoot  36.1042 -2.57011 8.33482
RightToes  -40.6107 -0.22338 -0.314818
Spine  -5.19298 -1.05482 -3.05867
Spine1  -10.4018 -2.18815 -5.24266
HEad  -90.3288 -9.02066 7.38414
LeftShoulder1  -1.94126e-019 -3.10601e-018 -2.51263e-017
LeftArm  -81.285 -53.9891 18.4052
LeftForeArm  99.3092 -80.5249 -83.4717
LeftHand  -0.885052 -3.63378 11.6243
RightShoulder  -4.96962e-017 0 -2.36833e-017
RightArm  -78.6634 40.4842 -30.4497
RightForeArm  45.5963 57.6167 13.6395
RightHand  -0.445342 -1.55548 -13.3613
LeftUpLeg  -9.23575 6.8553 5.54716
LeftLeg  14.9343 3.71445 0.736321
LeftFoot  35.7735 -0.729243 2.42083
LeftToes  -36.9085 1.70063e-006 7.6642e-008
425
root  -26.9879 42.6101 7.30271 -167.498 -10.2427 179.519
RightUpLeg  -9.32817 -16.9373 0.304093
RightLeg  14.4087 15.678 2.93499
RightFoot  36.1695 -3.04267 9.74647
RightToes  -41.1285 -0.227561 -0.321408
Spine  -4.8277 -0.867031 -3.11716
Spine1  -9.68898 -1.83943 -5.39304
HEad  -96.1109 -10.0019 7.26399
LeftShoulder1  -1.94126e-019 -3.10601e-018 -2.51263e-017
LeftArm  -94.5563 -52.7496 29.6547
LeftForeArm  94.8328 -80.3979 -81.2824
LeftHand  -0.899939 -3.13893 12.4664
RightShoulder  -4.96962e-017 0 -2.36833e-017
RightArm  -89.2814 36.1073 -39.5425
RightForeArm  45.6267 51.3201 10.3611
RightHand  -0.597683 0.183161 -12.5038
LeftUpLeg  -8.79063 10.3051 6.98853
LeftLeg  19.9979 -1.45203 -0.427898
LeftFoot  35.854 0.273368 -0.683487
LeftToes  -36.1501 1.70063e-006 7.6642e-008
426
root  -27.0063 43.034 6.9148 -168.869 -10.4103 179.813
RightUpLeg  -6.69701 -14.8636 -0.988126
RightLeg  13.2978 15.6717 2.62504
RightFoot  37.8625 -3.30665 10.0687
RightToes  -41.6905 -0.232126 -0.324471
Spine  -4.58128 -0.995068 -3.33394
Spine1  -9.09075 -2.1785 -5.81546
HEad  -99.8781 -10.5761 7.29754
LeftShoulder1  -1.94126e-019 -3.10601e-018 -2.51263e-017
LeftArm  -106.727 -51.8363 39.4793
LeftForeArm  80.3191 -79.7199 -67.2609
LeftHand  -0.896617 -2.58668 13.2419
RightShoulder  -4.96962e-017 0 -2.36833e-017
RightArm  -101.58 33.267 -45.301
RightForeArm  48.7668 44.0596 7.44197
RightHand  -0.654932 0.938382 -12.119
LeftUpLeg  -8.1078 12.7167 8.64517
LeftLeg  24.0891 -4.758 -1.77113
LeftFoot  35.8112 0.950465 -2.77965
LeftToes  -36.4514 1.70063e-006 7.6642e-008
427
root  -27.0901 43.0607 6.56772 -169.497 -11.1597 179.625
RightUpLeg  -3.20423 -12.6427 -2.70299
RightLeg  7.18456 14.3299 0.872352
RightFoot  37.6643 -2.9139 8.98715
RightToes  -38.9745 -0.210344 -0.309257
Spine  -4.74148 -1.33633 -3.67838
Spine1  -9.21376 -2.98326 -6.45688
HEad  -100.375 -12.1496 6.95704
LeftShoulder1  -1.94126e-019 -3.10601e-018 -2.51263e-017
LeftArm  -117.538 -51.5111 47.3091
LeftForeArm  64.7709 -77.9423 -51.2763
LeftHand  -0.893564 -2.2505 13.7535
RightShoulder  -4.96962e-017 0 -2.36833e-017
RightArm  -115.181 31.7854 -49.6475
RightForeArm  50.304 37.262 5.40637
RightHand  -0.441952 -1.70572 -13.7835
LeftUpLeg  -7.90521 13.1219 9.69846
LeftLeg  26.2765 -5.77315 -2.40095
LeftFoot  37.0391 1.25551 -3.58541
LeftToes  -38.264 1.70063e-006 7.6642e-008
428
root  -27.1716 42.6526 6.30681 -169.602 -11.4663 179.017
RightUpLeg  -3.07876 -10.414 -4.67094
RightLeg  5.91695 10.4307 0.4075
RightFoot  33.3193 -1.57919 5.75442
RightToes  -36.7709 -0.193215 -0.296164
Spine  -5.13628 -1.71199 -4.46041
Spine1  -9.72246 -3.91121 -6.91066
HEad  -98.8132 -13.788 5.27299
LeftShoulder1  -1.94126e-019 -3.10601e-018 -2.51263e-017
LeftArm  -126.401 -50.8667 53.4816
LeftForeArm  51.6237 -75.0734 -38.7818
LeftHand  -0.854977 -1.65087 14.2467
RightShoulder  -4.96962e-017 0 -2.36833e-017
RightArm  -126.467 30.8826 -52.3445
RightForeArm  45.1704 34.4699 4.97288
RightHand  0.171005 -6.5008 -19.1471
LeftUpLeg  -7.57175 12.3416 10.0872
LeftLeg  25.6992 -5.25575 -2.12517
LeftFoot  37.3717 1.15902 -3.26457
LeftToes  -37.6115 1.70063e-006 7.6642e-008
429
root  -27.2384 41.8188 6.12296 -169.968 -11.554 178.931
RightUpLeg  -3.38434 -10.1708 -6.11508
RightLeg  5.09894 7.14824 0.177992
RightFoot  30.0699 -0.804544 3.49464
RightToes  -34.0532 -0.172805 -0.279126
Spine  -5.41514 -1.86275 -4.83244
Spine1  -9.98401 -4.40781 -6.89971
HEad  -96.7307 -15.2053 3.33166
LeftShoulder1  -1.94126e-019 -3.10601e-018 -2.51263e-017
LeftArm  -133.294 -50.3466 57.8015
LeftForeArm  42.5297 -72.4184 -32.2206
LeftHand  -0.740646 -0.569184 14.527
RightShoulder  -4.96962e-017 0 -2.36833e-017
RightArm  -134.255 29.8407 -53.8746
RightForeArm  35.6824 34.8011 5.56256
RightHand  1.16801 -10.7095 -25.2706
LeftUpLeg  -7.18611 10.1409 10.803
LeftLeg  24.2841 -2.83017 -1.06695
LeftFoot  34.9297 0.545653 -1.57268
LeftToes  -36.8938 1.70063e-006 7.6642e-008
430
root  -27.2466 40.5245 6.00006 -170.615 -11.7167 179.339
RightUpLeg  -4.02991 -12.0572 -6.91401
RightLeg  4.74265 6.39188 0.119531
RightFoot  28.9416 -0.629574 2.9441
RightToes  -33.0482 -0.165465 -0.272583
Spine  -5.30987 -1.79246 -4.89068
Spine1  -9.58766 -4.38808 -6.75872
HEad  -94.6613 -17.4075 2.05903
LeftShoulder1  -1.94126e-019 -3.10601e-018 -2.51263e-017
LeftArm  -138.276 -49.7339 60.7558
LeftForeArm  36.516 -70.6015 -29.1109
LeftHand  -0.622821 0.521912 14.8815
RightShoulder  -4.96962e-017 0 -2.36833e-017
RightArm  -137.483 27.7552 -53.7746
RightForeArm  26.626 37.6268 6.82022
RightHand  1.6206 -12.5355 -25.9656
LeftUpLeg  -7.26289 7.49522 12.0515
LeftLeg  23.4305 0.679877 0.240626
LeftFoot  30.8076 -0.0973395 0.514806
LeftToes  -35.1539 1.70063e-006 7.6642e-008
431
root  -27.2235 38.7878 5.96761 -171.548 -12.0363 -179.727
RightUpLeg  -5.15545 -14.546 -6.99501
RightLeg  5.416 6.85531 0.208637
RightFoot  31.5211 -0.825424 3.42643
RightToes  -31.3097 -0.153043 -0.260965
Spine  -4.91741 -1.58963 -4.48802
Spine1  -8.87155 -3.91955 -6.36222
HEad  -92.4314 -18.0457 1.09509
LeftShoulder1  -1.94126e-019 -3.10601e-018 -2.51263e-017
LeftArm  -138.999 -48.8566 61.0195
LeftForeArm  34.1407 -70.0157 -28.3406
LeftHand  -0.55126 1.07838 14.8259
RightShoulder  -4.96962e-017 0 -2.36833e-017
RightArm  -138.416 26.1766 -52.4978
RightForeArm  23.9105 42.0477 8.28118
RightHand  1.29421 -11.9389 -22.8726
LeftUpLeg  -7.8147 4.25007 13.8369
LeftLeg  23.0974 4.41806 1.55189
LeftFoot  25.3536 -0.453861 2.17907
LeftToes  -32.805 1.70063e-006 7.6642e-008
432
root  -27.1559 36.7058 6.05815 -172.332 -12.0499 -178.149
RightUpLeg  -6.71006 -12.2945 -6.22585
RightLeg  7.0263 4.34889 0.255145
RightFoot  31.805 -0.469017 2.16213
RightToes  -61.9643 -0.41317 -0.402959
Spine  -4.47067 -1.42622 -3.35516
Spine1  -8.10632 -3.53513 -5.34837
HEad  -89.8729 -17.3058 -0.0239299
LeftShoulder1  -1.94126e-019 -3.10601e-018 -2.51263e-017
LeftArm  -135.901 -46.9061 59.1043
LeftForeArm  35.5876 -70.0722 -28.2088
LeftHand  -0.630041 0.357819 14.5768
RightShoulder  -4.96962e-017 0 -2.36833e-017
RightArm  -137.422 26.0243 -50.1141
RightForeArm  25.9563 50.8257 11.483
RightHand  0.983322 -10.8361 -21.089
LeftUpLeg  -8.61201 1.53312 16.3886
LeftLeg  21.4562 3.57611 1.14238
LeftFoot  24.4925 -0.344935 1.7506
LeftToes  -31.9427 1.70063e-006 7.6642e-008
